<svg xmlns="http://www.w3.org/2000/svg" version="1.1" xmlns:xlink="http://www.w3.org/1999/xlink" xmlns:svgjs="http://svgjs.dev/svgjs" viewBox="0 0 800 800"><g shape-rendering="crispEdges"><g transform="translate(75 0)"><use xlink:href="#SvgjsSymbol1000" x="250" y="112.5" fill="hsl(172, 100%, 32%)"></use><use xlink:href="#SvgjsSymbol1001" x="250" y="112.5" fill="#55d5bd"></use><use xlink:href="#SvgjsSymbol1002" x="250" y="112.5" fill="#007360"></use></g><g transform="translate(75 0)"><use xlink:href="#SvgjsSymbol1000" x="200" y="187.5" fill="hsl(172, 100%, 32%)"></use><use xlink:href="#SvgjsSymbol1001" x="200" y="187.5" fill="#55d5bd"></use><use xlink:href="#SvgjsSymbol1002" x="200" y="187.5" fill="#007360"></use></g><g transform="translate(75 0)"><use xlink:href="#SvgjsSymbol1000" x="350" y="112.5" fill="hsl(172, 100%, 32%)"></use><use xlink:href="#SvgjsSymbol1001" x="350" y="112.5" fill="#55d5bd"></use><use xlink:href="#SvgjsSymbol1002" x="350" y="112.5" fill="#007360"></use></g><g transform="translate(75 0)"><use xlink:href="#SvgjsSymbol1000" x="325" y="200" fill="hsl(172, 100%, 32%)"></use><use xlink:href="#SvgjsSymbol1001" x="325" y="200" fill="#55d5bd"></use><use xlink:href="#SvgjsSymbol1002" x="325" y="200" fill="#007360"></use></g><g transform="translate(75 0)"><use xlink:href="#SvgjsSymbol1000" x="375" y="287.5" fill="hsl(188, 10%, 16%)"></use><use xlink:href="#SvgjsSymbol1001" x="375" y="287.5" fill="#4d5556"></use><use xlink:href="#SvgjsSymbol1002" x="375" y="287.5" fill="#000002"></use></g><g transform="translate(75 0)"><use xlink:href="#SvgjsSymbol1000" x="287.5" y="162.5" fill="hsl(188, 10%, 16%)"></use><use xlink:href="#SvgjsSymbol1001" x="287.5" y="162.5" fill="#4d5556"></use><use xlink:href="#SvgjsSymbol1002" x="287.5" y="162.5" fill="#000002"></use></g><g transform="translate(75 0)"><use xlink:href="#SvgjsSymbol1000" x="312.5" y="62.5" fill="hsl(188, 10%, 16%)"></use><use xlink:href="#SvgjsSymbol1001" x="312.5" y="62.5" fill="#4d5556"></use><use xlink:href="#SvgjsSymbol1002" x="312.5" y="62.5" fill="#000002"></use></g><g transform="translate(75 0)"><use xlink:href="#SvgjsSymbol1000" x="387.5" y="175" fill="hsl(188, 10%, 16%)"></use><use xlink:href="#SvgjsSymbol1001" x="387.5" y="175" fill="#4d5556"></use><use xlink:href="#SvgjsSymbol1002" x="387.5" y="175" fill="#000002"></use></g><g transform="translate(75 0)"><use xlink:href="#SvgjsSymbol1000" x="250" y="237.5" fill="hsl(188, 10%, 16%)"></use><use xlink:href="#SvgjsSymbol1001" x="250" y="237.5" fill="#4d5556"></use><use xlink:href="#SvgjsSymbol1002" x="250" y="237.5" fill="#000002"></use></g><g><use xlink:href="#SvgjsSymbol1000" x="375" y="12.5" fill="hsl(171, 76%, 18%)"></use><use xlink:href="#SvgjsSymbol1001" x="375" y="12.5" fill="#3f7e71"></use><use xlink:href="#SvgjsSymbol1002" x="375" y="12.5" fill="#00281f"></use></g><g><use xlink:href="#SvgjsSymbol1000" x="287.5" y="162.5" fill="hsl(171, 76%, 18%)"></use><use xlink:href="#SvgjsSymbol1001" x="287.5" y="162.5" fill="#3f7e71"></use><use xlink:href="#SvgjsSymbol1002" x="287.5" y="162.5" fill="#00281f"></use></g><g><use xlink:href="#SvgjsSymbol1000" x="325" y="150" fill="hsl(171, 76%, 18%)"></use><use xlink:href="#SvgjsSymbol1001" x="325" y="150" fill="#3f7e71"></use><use xlink:href="#SvgjsSymbol1002" x="325" y="150" fill="#00281f"></use></g><g><use xlink:href="#SvgjsSymbol1000" x="300" y="212.5" fill="hsl(171, 76%, 18%)"></use><use xlink:href="#SvgjsSymbol1001" x="300" y="212.5" fill="#3f7e71"></use><use xlink:href="#SvgjsSymbol1002" x="300" y="212.5" fill="#00281f"></use></g><g><use xlink:href="#SvgjsSymbol1000" x="350" y="212.5" fill="hsl(171, 76%, 18%)"></use><use xlink:href="#SvgjsSymbol1001" x="350" y="212.5" fill="#3f7e71"></use><use xlink:href="#SvgjsSymbol1002" x="350" y="212.5" fill="#00281f"></use></g><g><use xlink:href="#SvgjsSymbol1000" x="375" y="112.5" fill="hsl(171, 76%, 18%)"></use><use xlink:href="#SvgjsSymbol1001" x="375" y="112.5" fill="#3f7e71"></use><use xlink:href="#SvgjsSymbol1002" x="375" y="112.5" fill="#00281f"></use></g><g><use xlink:href="#SvgjsSymbol1000" x="412.5" y="150" fill="hsl(171, 76%, 18%)"></use><use xlink:href="#SvgjsSymbol1001" x="412.5" y="150" fill="#3f7e71"></use><use xlink:href="#SvgjsSymbol1002" x="412.5" y="150" fill="#00281f"></use></g><g><use xlink:href="#SvgjsSymbol1000" x="387.5" y="225" fill="hsl(171, 76%, 18%)"></use><use xlink:href="#SvgjsSymbol1001" x="387.5" y="225" fill="#3f7e71"></use><use xlink:href="#SvgjsSymbol1002" x="387.5" y="225" fill="#00281f"></use></g><g><use xlink:href="#SvgjsSymbol1000" x="350" y="87.5" fill="hsl(171, 76%, 18%)"></use><use xlink:href="#SvgjsSymbol1001" x="350" y="87.5" fill="#3f7e71"></use><use xlink:href="#SvgjsSymbol1002" x="350" y="87.5" fill="#00281f"></use></g><g><use xlink:href="#SvgjsSymbol1000" x="362.5" y="50" fill="hsl(171, 76%, 18%)"></use><use xlink:href="#SvgjsSymbol1001" x="362.5" y="50" fill="#3f7e71"></use><use xlink:href="#SvgjsSymbol1002" x="362.5" y="50" fill="#00281f"></use></g><g><use xlink:href="#SvgjsSymbol1000" x="425" y="75" fill="hsl(171, 76%, 18%)"></use><use xlink:href="#SvgjsSymbol1001" x="425" y="75" fill="#3f7e71"></use><use xlink:href="#SvgjsSymbol1002" x="425" y="75" fill="#00281f"></use></g><g><use xlink:href="#SvgjsSymbol1000" x="412.5" y="37.5" fill="hsl(171, 76%, 18%)"></use><use xlink:href="#SvgjsSymbol1001" x="412.5" y="37.5" fill="#3f7e71"></use><use xlink:href="#SvgjsSymbol1002" x="412.5" y="37.5" fill="#00281f"></use></g><g><use xlink:href="#SvgjsSymbol1000" x="375" y="275" fill="hsl(171, 76%, 18%)"></use><use xlink:href="#SvgjsSymbol1001" x="375" y="275" fill="#3f7e71"></use><use xlink:href="#SvgjsSymbol1002" x="375" y="275" fill="#00281f"></use></g><g><use xlink:href="#SvgjsSymbol1000" x="437.5" y="250" fill="hsl(171, 76%, 18%)"></use><use xlink:href="#SvgjsSymbol1001" x="437.5" y="250" fill="#3f7e71"></use><use xlink:href="#SvgjsSymbol1002" x="437.5" y="250" fill="#00281f"></use></g><g><use xlink:href="#SvgjsSymbol1000" x="487.5" y="225" fill="hsl(171, 76%, 18%)"></use><use xlink:href="#SvgjsSymbol1001" x="487.5" y="225" fill="#3f7e71"></use><use xlink:href="#SvgjsSymbol1002" x="487.5" y="225" fill="#00281f"></use></g></g><symbol id="SvgjsSymbol1000"><polygon points="0,12.5 25,0 50,12.5 25,25"></polygon></symbol><symbol id="SvgjsSymbol1001"><polygon points="0,12.5 25,25 25,50 0,37.5"></polygon></symbol><symbol id="SvgjsSymbol1002"><polygon points="25,25 50,12.5 50,37.5 25,50"></polygon></symbol><g></g><symbol id="SvgjsSymbol1003"><polygon points="0,18.75 37.5,0 75,18.75 37.5,37.5"></polygon></symbol><symbol id="SvgjsSymbol1004"><polygon points="0,18.75 37.5,37.5 37.5,75 0,56.25"></polygon></symbol><symbol id="SvgjsSymbol1005"><polygon points="37.5,37.5 75,18.75 75,56.25 37.5,75"></polygon></symbol><symbol id="SvgjsSymbol1006"><polygon points="0,25 50,0 100,25 50,50"></polygon></symbol><symbol id="SvgjsSymbol1007"><polygon points="0,25 50,50 50,100 0,75"></polygon></symbol><symbol id="SvgjsSymbol1008"><polygon points="50,50 100,25 100,75 50,100"></polygon></symbol><symbol id="SvgjsSymbol1009"><polygon points="0,31.25 62.5,0 125,31.25 62.5,62.5"></polygon></symbol><symbol id="SvgjsSymbol1010"><polygon points="0,31.25 62.5,62.5 62.5,125 0,93.75"></polygon></symbol><symbol id="SvgjsSymbol1011"><polygon points="62.5,62.5 125,31.25 125,93.75 62.5,125"></polygon></symbol><symbol id="SvgjsSymbol1012"><polygon points="0,25 50,0 100,25 50,50"></polygon></symbol><symbol id="SvgjsSymbol1013"><polygon points="0,25 50,50 50,100 0,75"></polygon></symbol><symbol id="SvgjsSymbol1014"><polygon points="50,50 100,25 100,75 50,100"></polygon></symbol><symbol id="SvgjsSymbol1015"><polygon points="0,18.75 37.5,0 75,18.75 37.5,37.5"></polygon></symbol><symbol id="SvgjsSymbol1016"><polygon points="0,18.75 37.5,37.5 37.5,75 0,56.25"></polygon></symbol><symbol id="SvgjsSymbol1017"><polygon points="37.5,37.5 75,18.75 75,56.25 37.5,75"></polygon></symbol><symbol id="SvgjsSymbol1018"><polygon points="0,12.5 25,0 50,12.5 25,25"></polygon></symbol><symbol id="SvgjsSymbol1019"><polygon points="0,12.5 25,25 25,50 0,37.5"></polygon></symbol><symbol id="SvgjsSymbol1020"><polygon points="25,25 50,12.5 50,37.5 25,50"></polygon></symbol></svg>