<svg xmlns="http://www.w3.org/2000/svg" version="1.1" xmlns:xlink="http://www.w3.org/1999/xlink" xmlns:svgjs="http://svgjs.dev/svgjs" viewBox="0 0 800 800"><g transform="matrix(1,0,0,1,0,0)"><circle r="22" cx="706" cy="702" stroke-width="4" stroke="#0b221b" fill="none" opacity="0.16" transform="rotate(131, 400, 400)"></circle><circle r="27.12" cx="693.76" cy="689.92" stroke-width="4.48" stroke="#182d39" fill="none" opacity="0.1936" transform="rotate(125.76, 400, 400)"></circle><circle r="32.24" cx="681.52" cy="677.84" stroke-width="4.96" stroke="#20364d" fill="none" opacity="0.2272" transform="rotate(120.52, 400, 400)"></circle><circle r="37.36" cx="669.28" cy="665.76" stroke-width="5.4399999999999995" stroke="#263d5c" fill="none" opacity="0.26080000000000003" transform="rotate(115.28, 400, 400)"></circle><circle r="42.480000000000004" cx="657.04" cy="653.68" stroke-width="5.92" stroke="#2c4469" fill="none" opacity="0.2944" transform="rotate(110.03999999999999, 400, 400)"></circle><circle r="47.6" cx="644.8" cy="641.6" stroke-width="6.4" stroke="#314a75" fill="none" opacity="0.32799999999999996" transform="rotate(104.8, 400, 400)"></circle><circle r="52.72" cx="632.56" cy="629.52" stroke-width="6.88" stroke="#35507f" fill="none" opacity="0.36160000000000003" transform="rotate(99.56, 400, 400)"></circle><circle r="57.84" cx="620.3199999999999" cy="617.44" stroke-width="7.359999999999999" stroke="#395589" fill="none" opacity="0.3952" transform="rotate(94.32, 400, 400)"></circle><circle r="62.96" cx="608.08" cy="605.36" stroke-width="7.84" stroke="#3d5a92" fill="none" opacity="0.42879999999999996" transform="rotate(89.08, 400, 400)"></circle><circle r="68.08" cx="595.84" cy="593.28" stroke-width="8.32" stroke="#415f9b" fill="none" opacity="0.46240000000000003" transform="rotate(83.84, 400, 400)"></circle><circle r="73.2" cx="583.6" cy="581.2" stroke-width="8.8" stroke="#4463a3" fill="none" opacity="0.496" transform="rotate(78.6, 400, 400)"></circle><circle r="78.32" cx="571.36" cy="569.12" stroke-width="9.28" stroke="#4767aa" fill="none" opacity="0.5296" transform="rotate(73.36, 400, 400)"></circle><circle r="83.44" cx="559.12" cy="557.04" stroke-width="9.76" stroke="#4b6bb2" fill="none" opacity="0.5632" transform="rotate(68.12, 400, 400)"></circle><circle r="88.56" cx="546.88" cy="544.96" stroke-width="10.24" stroke="#4e6fb9" fill="none" opacity="0.5968" transform="rotate(62.879999999999995, 400, 400)"></circle><circle r="93.68" cx="534.64" cy="532.88" stroke-width="10.719999999999999" stroke="#5073c0" fill="none" opacity="0.6304" transform="rotate(57.64, 400, 400)"></circle><circle r="98.8" cx="522.4" cy="520.8" stroke-width="11.2" stroke="#5377c6" fill="none" opacity="0.664" transform="rotate(52.39999999999999, 400, 400)"></circle><circle r="103.92" cx="510.15999999999997" cy="508.72" stroke-width="11.68" stroke="#567bcd" fill="none" opacity="0.6976" transform="rotate(47.16, 400, 400)"></circle><circle r="109.04" cx="497.91999999999996" cy="496.64" stroke-width="12.16" stroke="#587ed3" fill="none" opacity="0.7312" transform="rotate(41.92, 400, 400)"></circle><circle r="114.16" cx="485.68" cy="484.56" stroke-width="12.64" stroke="#5b81d9" fill="none" opacity="0.7648" transform="rotate(36.67999999999999, 400, 400)"></circle><circle r="119.28" cx="473.44" cy="472.48" stroke-width="13.12" stroke="#5d85df" fill="none" opacity="0.7984" transform="rotate(31.439999999999998, 400, 400)"></circle><circle r="124.4" cx="461.2" cy="460.4" stroke-width="13.6" stroke="#6088e4" fill="none" opacity="0.832" transform="rotate(26.19999999999999, 400, 400)"></circle><circle r="129.51999999999998" cx="448.96" cy="448.32" stroke-width="14.08" stroke="#628bea" fill="none" opacity="0.8656" transform="rotate(20.959999999999994, 400, 400)"></circle><circle r="134.64" cx="436.71999999999997" cy="436.24" stroke-width="14.559999999999999" stroke="#648eef" fill="none" opacity="0.8992" transform="rotate(15.719999999999999, 400, 400)"></circle><circle r="139.76" cx="424.48" cy="424.16" stroke-width="15.04" stroke="#6791f5" fill="none" opacity="0.9328" transform="rotate(10.47999999999999, 400, 400)"></circle><circle r="144.88" cx="412.24" cy="412.08" stroke-width="15.52" stroke="#6994fa" fill="none" opacity="0.9664" transform="rotate(5.239999999999995, 400, 400)"></circle><circle r="150" cx="400" cy="400" stroke-width="16" stroke="#6b97ff" fill="none" opacity="1" transform="rotate(0, 400, 400)"></circle></g></svg>